<svg width="25" height="24" viewBox="0 0 25 24" fill="none" xmlns="http://www.w3.org/2000/svg">
<g id="home-02">
<g id="elements">
<path id="Vector 3142" d="M12.8752 18L12.8752 15" stroke="currentColor" stroke-width="1.5" stroke-linecap="round"/>
<path id="Rectangle 1147" d="M3.22664 13.2135C2.87362 10.9162 2.69711 9.76763 3.13141 8.74938C3.56571 7.73112 4.52927 7.03443 6.45638 5.64106L7.89623 4.6C10.2935 2.86667 11.4922 2 12.8752 2C14.2583 2 15.457 2.86667 17.8543 4.6L19.2941 5.64106C21.2212 7.03443 22.1848 7.73112 22.6191 8.74938C23.0534 9.76763 22.8769 10.9162 22.5239 13.2135L22.2228 15.1724C21.7224 18.4289 21.4722 20.0572 20.3042 21.0286C19.1363 22 17.4289 22 14.0141 22H11.7364C8.32158 22 6.61415 22 5.44624 21.0286C4.27833 20.0572 4.02811 18.4289 3.52767 15.1724L3.22664 13.2135Z" stroke="currentColor" stroke-width="1.5" stroke-linejoin="round"/>
</g>
</g>
</svg>
