<svg width="25" height="24" viewBox="0 0 25 24" fill="none" xmlns="http://www.w3.org/2000/svg">
<g id="ranking">
<g id="elements">
<path id="Rectangle 2292" d="M4 18C4 16.5858 4 15.8787 4.43934 15.4393C4.87868 15 5.58579 15 7 15H7.5C8.44281 15 8.91421 15 9.20711 15.2929C9.5 15.5858 9.5 16.0572 9.5 17V22H4V18Z" stroke="currentColor" stroke-opacity="0.5" stroke-width="1.5" stroke-linecap="round" stroke-linejoin="round"/>
<path id="Rectangle 2294" d="M15.5 19C15.5 18.0572 15.5 17.5858 15.7929 17.2929C16.0858 17 16.5572 17 17.5 17H18C19.4142 17 20.1213 17 20.5607 17.4393C21 17.8787 21 18.5858 21 20V22H15.5V19Z" stroke="currentColor" stroke-opacity="0.5" stroke-width="1.5" stroke-linecap="round" stroke-linejoin="round"/>
<path id="Vector 4543" d="M2.5 22H22.5" stroke="currentColor" stroke-opacity="0.5" stroke-width="1.5" stroke-linecap="round" stroke-linejoin="round"/>
<path id="Rectangle 2293" d="M9.5 16C9.5 14.5858 9.5 13.8787 9.93934 13.4393C10.3787 13 11.0858 13 12.5 13C13.9142 13 14.6213 13 15.0607 13.4393C15.5 13.8787 15.5 14.5858 15.5 16V22H9.5V16Z" stroke="currentColor" stroke-opacity="0.5" stroke-width="1.5" stroke-linecap="round" stroke-linejoin="round"/>
<path id="Vector" d="M13.1911 2.57767L13.895 3.99715C13.991 4.19475 14.2469 4.38428 14.4629 4.42057L15.7388 4.6343C16.5547 4.77141 16.7467 5.36824 16.1587 5.957L15.1668 6.95709C14.9989 7.12646 14.9069 7.4531 14.9589 7.68699L15.2428 8.925C15.4668 9.90492 14.9509 10.284 14.091 9.77185L12.8951 9.05808C12.6791 8.92903 12.3232 8.92903 12.1032 9.05808L10.9073 9.77185C10.0514 10.284 9.53146 9.90089 9.75543 8.925L10.0394 7.68699C10.0914 7.4531 9.99941 7.12646 9.83143 6.95709L8.83954 5.957C8.2556 5.36824 8.44358 4.77141 9.25949 4.6343L10.5353 4.42057C10.7473 4.38428 11.0033 4.19475 11.0993 3.99715L11.8032 2.57767C12.1872 1.80744 12.8111 1.80744 13.1911 2.57767Z" stroke="currentColor" stroke-opacity="0.5" stroke-width="1.5" stroke-linecap="round" stroke-linejoin="round"/>
</g>
</g>
</svg>
