<svg width="375" height="460" viewBox="0 0 375 460" fill="none" xmlns="http://www.w3.org/2000/svg">
<circle cx="187.505" cy="190" r="150" fill="black"/>
<g filter="url(#filter0_dii_205_4409)">
<circle cx="187.505" cy="190" r="142" stroke="url(#paint0_linear_205_4409)" stroke-width="16"/>
</g>
<path d="M181.806 83.5455V101H179.164V86.1875H179.062L174.886 88.9148V86.392L179.241 83.5455H181.806ZM186.528 101V99.0909L192.434 92.9716C193.065 92.3068 193.584 91.7244 193.994 91.2244C194.408 90.7187 194.718 90.2386 194.922 89.7841C195.127 89.3295 195.229 88.8466 195.229 88.3352C195.229 87.7557 195.093 87.2557 194.82 86.8352C194.547 86.4091 194.175 86.0824 193.704 85.8551C193.232 85.6222 192.701 85.5057 192.11 85.5057C191.485 85.5057 190.94 85.6335 190.474 85.8892C190.008 86.1449 189.65 86.5057 189.4 86.9716C189.15 87.4375 189.025 87.983 189.025 88.608H186.511C186.511 87.5455 186.755 86.6165 187.244 85.821C187.732 85.0256 188.403 84.4091 189.255 83.9716C190.107 83.5284 191.076 83.3068 192.161 83.3068C193.258 83.3068 194.224 83.5256 195.059 83.9631C195.9 84.3949 196.556 84.9858 197.028 85.7358C197.499 86.4801 197.735 87.321 197.735 88.2585C197.735 88.9062 197.613 89.5398 197.369 90.1591C197.13 90.7784 196.712 91.4687 196.116 92.2301C195.519 92.9858 194.69 93.9034 193.627 94.983L190.158 98.6136V98.7415H198.016V101H186.528Z" fill="white"/>
<path d="M187.278 295.239C186.499 295.227 185.732 295.085 184.976 294.812C184.226 294.54 183.545 294.085 182.931 293.449C182.317 292.812 181.826 291.957 181.457 290.884C181.093 289.81 180.911 288.469 180.911 286.861C180.911 285.338 181.062 283.986 181.363 282.804C181.67 281.622 182.11 280.625 182.684 279.812C183.258 278.994 183.951 278.372 184.763 277.946C185.576 277.52 186.488 277.307 187.499 277.307C188.539 277.307 189.462 277.511 190.269 277.92C191.076 278.33 191.729 278.895 192.229 279.616C192.735 280.338 193.056 281.159 193.192 282.08H190.593C190.417 281.352 190.067 280.759 189.545 280.298C189.022 279.838 188.34 279.608 187.499 279.608C186.221 279.608 185.224 280.165 184.508 281.278C183.797 282.392 183.44 283.94 183.434 285.923H183.562C183.863 285.429 184.232 285.009 184.67 284.662C185.113 284.31 185.607 284.04 186.153 283.852C186.704 283.659 187.283 283.562 187.891 283.562C188.903 283.562 189.817 283.81 190.636 284.304C191.459 284.793 192.116 285.469 192.604 286.332C193.093 287.196 193.337 288.185 193.337 289.298C193.337 290.412 193.084 291.42 192.579 292.324C192.079 293.227 191.374 293.943 190.465 294.472C189.556 294.994 188.494 295.25 187.278 295.239ZM187.269 293.023C187.94 293.023 188.539 292.858 189.067 292.528C189.596 292.199 190.013 291.756 190.32 291.199C190.627 290.642 190.78 290.02 190.78 289.332C190.78 288.662 190.63 288.051 190.329 287.5C190.033 286.949 189.624 286.511 189.101 286.188C188.584 285.864 187.994 285.702 187.329 285.702C186.823 285.702 186.354 285.798 185.922 285.991C185.496 286.185 185.121 286.452 184.797 286.793C184.474 287.134 184.218 287.526 184.03 287.969C183.849 288.406 183.758 288.869 183.758 289.358C183.758 290.011 183.908 290.616 184.209 291.173C184.516 291.73 184.934 292.179 185.462 292.52C185.996 292.855 186.599 293.023 187.269 293.023Z" fill="white"/>
<path d="M287.261 198.489C286.09 198.489 285.045 198.287 284.124 197.884C283.209 197.48 282.485 196.92 281.951 196.205C281.422 195.483 281.138 194.648 281.099 193.699H283.775C283.809 194.216 283.982 194.665 284.295 195.045C284.613 195.42 285.028 195.71 285.539 195.915C286.05 196.119 286.619 196.222 287.244 196.222C287.931 196.222 288.539 196.102 289.067 195.864C289.601 195.625 290.019 195.293 290.32 194.866C290.621 194.435 290.772 193.938 290.772 193.375C290.772 192.79 290.621 192.276 290.32 191.832C290.025 191.384 289.59 191.031 289.016 190.776C288.448 190.52 287.761 190.392 286.954 190.392H285.479V188.244H286.954C287.601 188.244 288.17 188.128 288.658 187.895C289.153 187.662 289.539 187.338 289.817 186.923C290.096 186.503 290.235 186.011 290.235 185.449C290.235 184.909 290.113 184.44 289.869 184.043C289.63 183.639 289.289 183.324 288.846 183.097C288.408 182.869 287.891 182.756 287.295 182.756C286.726 182.756 286.195 182.861 285.701 183.071C285.212 183.276 284.815 183.571 284.508 183.957C284.201 184.338 284.036 184.795 284.013 185.33H281.465C281.494 184.386 281.772 183.557 282.3 182.841C282.834 182.125 283.539 181.565 284.414 181.162C285.289 180.759 286.261 180.557 287.329 180.557C288.448 180.557 289.414 180.776 290.226 181.213C291.045 181.645 291.675 182.222 292.119 182.943C292.567 183.665 292.789 184.455 292.783 185.312C292.789 186.29 292.516 187.119 291.965 187.801C291.42 188.483 290.692 188.94 289.783 189.173V189.31C290.942 189.486 291.84 189.946 292.476 190.69C293.119 191.435 293.437 192.358 293.431 193.46C293.437 194.42 293.17 195.281 292.63 196.043C292.096 196.804 291.366 197.403 290.44 197.841C289.513 198.273 288.454 198.489 287.261 198.489Z" fill="white"/>
<path d="M86.9878 180.557C87.7662 180.562 88.5333 180.705 89.289 180.983C90.0447 181.261 90.7265 181.716 91.3344 182.347C91.9481 182.977 92.4367 183.83 92.8003 184.903C93.1697 185.972 93.3572 187.301 93.3628 188.892C93.3628 190.42 93.2094 191.781 92.9026 192.974C92.5958 194.162 92.1555 195.165 91.5816 195.983C91.0134 196.801 90.3231 197.423 89.5106 197.849C88.6981 198.276 87.7833 198.489 86.7662 198.489C85.7265 198.489 84.8032 198.284 83.9964 197.875C83.1895 197.466 82.5333 196.901 82.0276 196.179C81.5219 195.452 81.2066 194.616 81.0816 193.673H83.681C83.8515 194.423 84.1981 195.031 84.7208 195.497C85.2492 195.957 85.931 196.188 86.7662 196.188C88.0447 196.188 89.0418 195.631 89.7577 194.517C90.4736 193.398 90.8344 191.835 90.8401 189.83H90.7037C90.4083 190.318 90.039 190.739 89.5958 191.091C89.1583 191.443 88.6668 191.716 88.1214 191.909C87.5759 192.102 86.9935 192.199 86.3742 192.199C85.3685 192.199 84.4537 191.952 83.6299 191.457C82.806 190.963 82.1498 190.284 81.6611 189.42C81.1725 188.557 80.9282 187.571 80.9282 186.463C80.9282 185.361 81.1782 184.361 81.6782 183.463C82.1839 182.565 82.8884 181.855 83.7918 181.332C84.7009 180.804 85.7662 180.545 86.9878 180.557ZM86.9964 182.773C86.3316 182.773 85.7322 182.937 85.1981 183.267C84.6697 183.591 84.252 184.031 83.9452 184.588C83.6384 185.139 83.485 185.753 83.485 186.429C83.485 187.105 83.6327 187.719 83.9282 188.27C84.2293 188.815 84.6384 189.25 85.1555 189.574C85.6782 189.892 86.2748 190.051 86.9452 190.051C87.4452 190.051 87.9111 189.955 88.343 189.761C88.7748 189.568 89.1526 189.301 89.4765 188.96C89.8003 188.614 90.0532 188.222 90.235 187.784C90.4168 187.347 90.5077 186.886 90.5077 186.403C90.5077 185.761 90.3543 185.165 90.0475 184.614C89.7464 184.062 89.3316 183.619 88.8032 183.284C88.2748 182.943 87.6725 182.773 86.9964 182.773Z" fill="white"/>
<path d="M190.505 112.625C190.505 110.968 189.162 109.625 187.505 109.625C185.848 109.625 184.505 110.968 184.505 112.625H190.505ZM184.505 188.625V191.625H190.505V188.625H184.505ZM184.505 112.625V188.625H190.505V112.625H184.505Z" fill="white"/>
<path d="M129.756 187.5C128.099 187.5 126.756 188.843 126.756 190.5C126.756 192.157 128.099 193.5 129.756 193.5V187.5ZM181.756 193.5H184.756V187.5H181.756V193.5ZM129.756 193.5H181.756V187.5H129.756V193.5Z" fill="white"/>
<path d="M188.505 113.25C188.505 112.698 188.057 112.25 187.505 112.25C186.953 112.25 186.505 112.698 186.505 113.25H188.505ZM186.505 201.875V202.875H188.505V201.875H186.505ZM186.505 113.25V201.875H188.505V113.25H186.505Z" fill="#E4A011"/>
<circle cx="187.505" cy="190.25" r="8" fill="#D9D9D9"/>
<path d="M239.442 94.9614L230.32 110.288" stroke="white" stroke-width="4"/>
<path d="M140.442 266.961L131.32 282.288" stroke="white" stroke-width="4"/>
<path d="M129.884 98.2222L138.596 113.786" stroke="white" stroke-width="4"/>
<path d="M228.59 269.959L237.302 285.522" stroke="white" stroke-width="4"/>
<path d="M92.0515 139.938L107.535 148.791" stroke="white" stroke-width="4"/>
<path d="M263.988 238.719L279.471 247.572" stroke="white" stroke-width="4"/>
<path d="M279.006 133.5L263.756 142.75" stroke="white" stroke-width="4"/>
<path d="M107.756 232L92.5061 241.25" stroke="white" stroke-width="4"/>
<defs>
<filter id="filter0_dii_205_4409" x="-42.4951" y="0" width="460" height="460" filterUnits="userSpaceOnUse" color-interpolation-filters="sRGB">
<feFlood flood-opacity="0" result="BackgroundImageFix"/>
<feColorMatrix in="SourceAlpha" type="matrix" values="0 0 0 0 0 0 0 0 0 0 0 0 0 0 0 0 0 0 127 0" result="hardAlpha"/>
<feOffset dy="40"/>
<feGaussianBlur stdDeviation="40"/>
<feColorMatrix type="matrix" values="0 0 0 0 0.179085 0 0 0 0 0.124444 0 0 0 0 0.012549 0 0 0 0.247 0"/>
<feBlend mode="normal" in2="BackgroundImageFix" result="effect1_dropShadow_205_4409"/>
<feBlend mode="normal" in="SourceGraphic" in2="effect1_dropShadow_205_4409" result="shape"/>
<feColorMatrix in="SourceAlpha" type="matrix" values="0 0 0 0 0 0 0 0 0 0 0 0 0 0 0 0 0 0 127 0" result="hardAlpha"/>
<feOffset dy="12.6222"/>
<feGaussianBlur stdDeviation="6.31111"/>
<feComposite in2="hardAlpha" operator="arithmetic" k2="-1" k3="1"/>
<feColorMatrix type="matrix" values="0 0 0 0 1 0 0 0 0 0.724267 0 0 0 0 0.0730353 0 0 0 1 0"/>
<feBlend mode="normal" in2="shape" result="effect2_innerShadow_205_4409"/>
<feColorMatrix in="SourceAlpha" type="matrix" values="0 0 0 0 0 0 0 0 0 0 0 0 0 0 0 0 0 0 127 0" result="hardAlpha"/>
<feOffset dy="-6.31111"/>
<feGaussianBlur stdDeviation="3.15556"/>
<feComposite in2="hardAlpha" operator="arithmetic" k2="-1" k3="1"/>
<feColorMatrix type="matrix" values="0 0 0 0 0.711863 0 0 0 0 0.494667 0 0 0 0 0.0498824 0 0 0 1 0"/>
<feBlend mode="normal" in2="effect2_innerShadow_205_4409" result="effect3_innerShadow_205_4409"/>
</filter>
<linearGradient id="paint0_linear_205_4409" x1="187.505" y1="40" x2="187.505" y2="340" gradientUnits="userSpaceOnUse">
<stop stop-color="#FFB212"/>
<stop offset="1" stop-color="#BF850D"/>
</linearGradient>
</defs>
</svg>
