<svg width="25" height="24" viewBox="0 0 25 24" fill="none" xmlns="http://www.w3.org/2000/svg">
<g id="user-group" clip-path="url(#clip0_192_3778)">
<g id="elements">
<path id="Vector" d="M20.899 18C21.6483 18 22.2443 17.5285 22.7795 16.8691C23.8749 15.5194 22.0763 14.4408 21.3904 13.9126C20.693 13.3756 19.9144 13.0714 19.125 13M18.125 11C19.5057 11 20.625 9.88071 20.625 8.5C20.625 7.11929 19.5057 6 18.125 6" stroke="currentColor" stroke-opacity="0.5" stroke-width="1.5" stroke-linecap="round"/>
<path id="Vector_2" d="M3.35096 18C2.60166 18 2.00567 17.5285 1.47055 16.8691C0.375089 15.5194 2.17367 14.4408 2.85965 13.9126C3.55697 13.3756 4.33558 13.0714 5.125 13M5.625 11C4.24429 11 3.125 9.88071 3.125 8.5C3.125 7.11929 4.24429 6 5.625 6" stroke="currentColor" stroke-opacity="0.5" stroke-width="1.5" stroke-linecap="round"/>
<path id="Vector_3" d="M8.2088 15.1112C7.18703 15.743 4.50799 17.0331 6.1397 18.6474C6.93678 19.436 7.82452 20 8.94063 20H15.3094C16.4255 20 17.3132 19.436 18.1103 18.6474C19.742 17.0331 17.063 15.743 16.0412 15.1112C13.6451 13.6296 10.6049 13.6296 8.2088 15.1112Z" stroke="currentColor" stroke-opacity="0.5" stroke-width="1.5" stroke-linecap="round" stroke-linejoin="round"/>
<path id="Ellipse 1381" d="M15.625 7.5C15.625 9.433 14.058 11 12.125 11C10.192 11 8.625 9.433 8.625 7.5C8.625 5.567 10.192 4 12.125 4C14.058 4 15.625 5.567 15.625 7.5Z" stroke="currentColor" stroke-opacity="0.5" stroke-width="1.5"/>
</g>
</g>
<defs>
<clipPath id="clip0_192_3778">
<rect width="24" height="24" fill="currentColor" transform="translate(0.125)"/>
</clipPath>
</defs>x
</svg>
